<svg width="24" height="24" viewBox="0 0 24 24" fill="none" xmlns="http://www.w3.org/2000/svg">
  <path d="M12 4C10.5 4 8.5 4.5 7.5 6C6.5 7.5 6 9.5 6 12V13.5C6 16.5 8.5 19 12 19C15.5 19 18 16.5 18 13.5V12C18 9.5 17.5 7.5 16.5 6C15.5 4.5 13.5 4 12 4Z" stroke="currentColor" stroke-width="1.8" stroke-linejoin="round"/>
  <path d="M9 7C9 5.5 10 4.5 12 4.5C14 4.5 15 5.5 15 7" stroke="currentColor" stroke-width="1.8" stroke-linecap="round"/>
  <path d="M12 9V15M10 10.5C10 10.5 10.5 9.5 12 9.5C13.5 9.5 14 10.5 14 10.5C14 10.5 14 11.5 12 11.5C10 11.5 10 12.5 10 12.5C10 12.5 10.5 13.5 12 13.5C13.5 13.5 14 12.5 14 12.5M10 15H14" stroke="currentColor" stroke-width="1.5" stroke-linecap="round" stroke-linejoin="round"/>
</svg>
